<svg xmlns="http://www.w3.org/2000/svg" viewBox="0 0 64 64">
  <rect width="64" height="64" rx="14" fill="#0a1226"/>
  <polygon points="32,8 54,20 54,44 32,56 10,44 10,20" fill="#0a1a2e" stroke="#00e5ff" stroke-width="2.5"/>
  <g stroke="#00e5ff" stroke-width="2" fill="#00e5ff">
    <line x1="32" y1="32" x2="32" y2="17"/><circle cx="32" cy="17" r="3.5" fill="#0a1a2e"/>
    <line x1="32" y1="32" x2="19" y2="25"/><circle cx="19" cy="25" r="3.5" fill="#0a1a2e"/>
    <line x1="32" y1="32" x2="19" y2="40"/><circle cx="19" cy="40" r="3.5" fill="#0a1a2e"/>
    <line x1="32" y1="32" x2="32" y2="47"/><circle cx="32" cy="47" r="3.5" fill="#0a1a2e"/>
  </g>
  <line x1="32" y1="32" x2="45" y2="25" stroke="#ff3b5c" stroke-width="2"/>
  <circle cx="45" cy="25" r="4.5" fill="#ff3b5c"/>
  <circle cx="32" cy="32" r="7" fill="#072133" stroke="#00e5ff" stroke-width="2.5"/>
  <circle cx="32" cy="30.5" r="2.2" fill="#00e5ff"/>
  <polygon points="30,30 34,30 35,37 29,37" fill="#00e5ff"/>
</svg>
